<svg version="1.2" xmlns="http://www.w3.org/2000/svg" viewBox="0 0 40 19" width="40" height="19"><style>.a{fill:#6f6f6f}.b{fill:#777}</style><path class="a" d="m27.2 18.5l0.2-0.7c0.2-0.9 0.1-1.7-0.3-2.3-0.4-0.5-1-0.9-1.7-0.9l-14.4-0.2q0 0 0 0 0 0-0.1 0 0 0 0 0 0 0 0 0 0 0 0-0.1-0.1 0-0.1 0 0 0 0 0 0 0 0 0 0-0.1 0-0.1-0.1 0-0.1-0.1 0 0 0 0 0-0.1 0.1-0.1 0 0 0 0 0-0.1 0-0.1 0 0 0 0 0.1-0.1 0.1-0.1 0 0 0 0 0.1 0 0.1 0 0 0 0 0 0.1-0.1 0.1-0.1l14.5-0.1c1.7-0.1 3.5-1.6 4.2-3.4l0.8-2.2q0 0 0-0.1 0 0 0-0.1 0.1 0 0 0 0-0.1 0-0.1c-0.9-4.4-4.7-7.7-9.2-7.7-4.1 0-7.6 2.8-8.9 6.7q-0.3-0.3-0.7-0.5-0.3-0.1-0.7-0.2-0.4-0.2-0.8-0.2-0.4 0-0.8 0c-2 0.2-3.6 1.9-3.8 4q0 0.2 0 0.4 0 0.1 0 0.3 0.1 0.2 0.1 0.4 0 0.2 0.1 0.4c-3.3 0.1-5.9 2.9-5.9 6.3q0 0.5 0.1 0.9 0 0.1 0.1 0.2 0 0.1 0.1 0.1h26.5q0.1 0 0.1 0 0 0 0-0.1 0.1 0 0.1 0 0 0 0 0 0.1 0 0.1 0 0-0.1 0-0.1 0 0 0 0 0.1-0.1 0.1-0.1z"/><path class="b" d="m31.9 8.2q-0.2 0-0.4 0 0 0 0 0 0 0 0 0 0 0 0 0 0 0 0 0 0 0 0 0-0.1 0-0.1 0 0 0 0 0 0 0 0 0 0 0 0 0.1 0 0 0 0 0 0-0.1 0 0 0 0 0l-0.5 2.1c-0.3 0.8-0.2 1.6 0.2 2.2 0.4 0.6 1 0.9 1.8 0.9l3 0.2q0.1 0 0.1 0 0 0 0 0.1 0 0 0 0 0 0 0.1 0 0 0 0 0 0 0 0.1 0.1 0 0 0 0 0 0.1 0 0.1 0 0 0 0 0 0 0 0.1 0 0 0 0 0 0 0 0 0 0.1 0 0.1 0 0-0.1 0 0 0.1 0 0.1 0 0 0 0-0.1 0-0.1 0.1 0 0 0 0-0.1 0-0.1 0 0 0 0 0l-3.2 0.2c-1.7 0.1-3.6 1.5-4.3 3.3l-0.2 0.6q0 0 0 0.1 0 0 0 0 0 0 0 0.1 0 0 0 0 0 0 0.1 0 0 0 0 0 0 0.1 0 0.1 0 0 0.1 0h10.9q0 0 0.1 0 0 0 0 0 0-0.1 0-0.1 0.1 0 0.1 0 0 0 0 0 0 0 0-0.1 0.1 0 0.1 0 0 0 0-0.1 0.1-0.2 0.1-0.5 0.1-0.3 0.1-0.6 0-0.2 0.1-0.5 0-0.3 0-0.6c0-4.5-3.5-8.1-7.9-8.1z"/></svg>