<svg version="1.2" xmlns="http://www.w3.org/2000/svg" viewBox="0 -12 40 40" width="40" height="40">
	<title>logo</title>
	<style>
		.s0 { fill: #6f6f6f } 
		.s1 { fill: #777777 } 
	</style>
	<g id="Layer 1">
		<path class="s0" d="m27.16 17.51l0.2-0.74c0.25-0.87 0.16-1.68-0.25-2.27-0.37-0.55-1-0.87-1.76-0.91l-14.34-0.19q-0.02 0-0.03 0-0.02 0-0.04-0.01-0.01 0-0.03-0.01-0.01 0-0.03-0.01-0.01-0.01-0.03-0.02-0.01-0.01-0.02-0.02-0.02-0.01-0.03-0.03-0.01-0.01-0.02-0.02-0.02-0.03-0.03-0.07-0.01-0.03-0.01-0.06-0.01-0.04 0-0.07 0-0.04 0.01-0.07 0.01-0.03 0.02-0.05 0.02-0.03 0.03-0.05 0.02-0.03 0.04-0.05 0.02-0.02 0.04-0.04 0.02-0.01 0.05-0.03 0.02-0.01 0.05-0.02 0.02-0.01 0.05-0.02 0.03-0.01 0.06-0.01l14.47-0.19c1.72-0.08 3.58-1.54 4.23-3.31l0.83-2.25q0.01-0.04 0.02-0.07 0.01-0.04 0.01-0.08 0-0.04 0-0.07 0-0.04-0.01-0.08c-0.94-4.4-4.7-7.69-9.2-7.69-4.15 0-7.67 2.79-8.93 6.67q-0.31-0.24-0.67-0.43-0.35-0.18-0.73-0.29-0.39-0.11-0.78-0.14-0.4-0.04-0.8 0c-1.99 0.21-3.59 1.88-3.78 3.96q-0.02 0.19-0.02 0.38-0.01 0.2 0.01 0.39 0.01 0.2 0.04 0.39 0.03 0.19 0.08 0.38c-3.26 0.1-5.86 2.88-5.86 6.29q0 0.46 0.06 0.91 0.02 0.11 0.1 0.18 0.08 0.08 0.18 0.08h26.49q0.03 0 0.06-0.01 0.03 0 0.05-0.01 0.03-0.01 0.05-0.02 0.03-0.02 0.05-0.04 0.02-0.01 0.04-0.03 0.02-0.03 0.03-0.05 0.02-0.02 0.03-0.05 0.01-0.03 0.02-0.05z"/>
		<path class="s1" d="m31.94 7.15q-0.2 0-0.4 0.01 0 0-0.01 0-0.01 0.01-0.02 0.01-0.01 0-0.01 0-0.01 0-0.02 0.01-0.01 0-0.02 0.01-0.02 0-0.03 0.01-0.01 0.01-0.02 0.02-0.01 0.01-0.02 0.02-0.01 0.01-0.02 0.02-0.01 0.01-0.01 0.02-0.01 0.02-0.01 0.03-0.01 0.01-0.01 0.03l-0.57 2.03c-0.24 0.87-0.15 1.68 0.26 2.27 0.37 0.55 0.99 0.87 1.75 0.91l3.06 0.19q0.02 0 0.03 0 0.02 0.01 0.03 0.01 0.02 0.01 0.03 0.01 0.02 0.01 0.03 0.02 0.03 0.01 0.06 0.04 0.02 0.02 0.04 0.05 0.02 0.03 0.03 0.06 0.01 0.03 0.02 0.07 0 0.01 0 0.03 0 0.02 0 0.04-0.01 0.01-0.01 0.03 0 0.02-0.01 0.04-0.01 0.02-0.02 0.05-0.01 0.02-0.03 0.05-0.02 0.02-0.04 0.04-0.02 0.02-0.04 0.04-0.02 0.02-0.04 0.03-0.03 0.02-0.05 0.03-0.03 0.01-0.06 0.01-0.03 0.01-0.05 0.01l-3.18 0.19c-1.72 0.09-3.58 1.54-4.23 3.31l-0.23 0.63q-0.01 0.02-0.01 0.04-0.01 0.02-0.01 0.04 0.01 0.02 0.01 0.04 0.01 0.02 0.02 0.04 0.01 0.02 0.03 0.03 0.01 0.01 0.03 0.02 0.02 0.01 0.04 0.02 0.02 0.01 0.04 0.01h10.94q0.02 0 0.04-0.01 0.03 0 0.05-0.01 0.02-0.01 0.04-0.02 0.02-0.01 0.04-0.02 0.02-0.02 0.04-0.03 0.02-0.02 0.03-0.04 0.01-0.02 0.02-0.05 0.01-0.02 0.02-0.04 0.07-0.27 0.13-0.55 0.05-0.27 0.09-0.55 0.03-0.28 0.05-0.56 0.02-0.28 0.02-0.56c0-4.51-3.51-8.18-7.84-8.18z"/>
	</g>
</svg>